<svg xmlns="http://www.w3.org/2000/svg" xmlns:xlink="http://www.w3.org/1999/xlink" width="48" height="48" viewBox="0 0 48 48">
  <defs>
    <clipPath id="clip-path">
      <rect id="Rectangle_114011" data-name="Rectangle 114011" width="23.205" height="31.643" fill="none"/>
    </clipPath>
    <clipPath id="clip-path-2">
      <rect id="Rectangle_114008" data-name="Rectangle 114008" width="4.922" height="4.219" fill="none"/>
    </clipPath>
  </defs>
  <g id="boAt_Cables" data-name="boAt Cables" transform="translate(2127 2733)">
    <rect id="Rectangle_114173" data-name="Rectangle 114173" width="48" height="48" transform="translate(-2127 -2733)" fill="#fff" opacity="0"/>
    <g id="Group_333649" data-name="Group 333649" transform="translate(-2115 -2725)" clip-path="url(#clip-path)">
      <path id="Path_340886" data-name="Path 340886" d="M0,0H11.954V14.064H0Z" transform="translate(0 9.141)" fill="#1a2024"/>
      <rect id="Rectangle_114005" data-name="Rectangle 114005" width="3.515" height="8.438" transform="translate(4.219 23.205)" fill="#1a2024"/>
      <rect id="Rectangle_114006" data-name="Rectangle 114006" width="2.813" height="6.329" transform="translate(17.931 21.799)" fill="#1a2024"/>
      <path id="Path_340887" data-name="Path 340887" d="M0,0H9.142V9.141H0Z" transform="translate(1.406)" fill="#b2b9bf"/>
      <rect id="Rectangle_114007" data-name="Rectangle 114007" width="4.922" height="4.219" transform="translate(16.876 6.329)" fill="#b2b9bf"/>
      <path id="Path_340888" data-name="Path 340888" d="M0,0H7.736V11.954H0Z" transform="translate(15.47 10.548)" fill="#1a2024"/>
      <g id="Group_333644" data-name="Group 333644" transform="translate(1.406 2.11)">
        <g id="Group_333643" data-name="Group 333643" clip-path="url(#clip-path-2)">
          <path id="Path_340889" data-name="Path 340889" d="M4.856,6.763h.422c.721,0,.715,0,.691-.839-.008-.274-.108-.39-.34-.385-.406.006-.812,0-1.219,0-.638,0-.686.063-.655.808.012.271.11.422.357.415s.492,0,.742,0m4.549,0H9.88c.633,0,.686-.07.651-.813-.013-.274-.116-.414-.361-.411-.38,0-.76,0-1.14,0-.748,0-.758.016-.712.874.013.245.111.352.317.352H9.4" transform="translate(-2.519 -3.753)" fill="#1a2024"/>
        </g>
      </g>
      <g id="Group_333646" data-name="Group 333646" transform="translate(5.625 2.11)">
        <g id="Group_333645" data-name="Group 333645" clip-path="url(#clip-path-2)">
          <path id="Path_340890" data-name="Path 340890" d="M10.856,6.763h.422c.721,0,.715,0,.691-.839-.008-.274-.108-.39-.34-.385-.406.006-.812,0-1.219,0-.638,0-.686.063-.655.808.012.271.11.422.357.415s.492,0,.742,0m4.549,0h.477c.633,0,.686-.07.651-.813-.013-.274-.116-.414-.361-.411-.38,0-.76,0-1.14,0-.748,0-.758.016-.712.874.013.245.111.352.317.352H15.4" transform="translate(-8.519 -3.753)" fill="#1a2024"/>
        </g>
      </g>
    </g>
  </g>
</svg>
