<svg xmlns="http://www.w3.org/2000/svg" xmlns:xlink="http://www.w3.org/1999/xlink" width="48" height="48" viewBox="0 0 48 48">
  <defs>
    <clipPath id="clip-path">
      <rect id="Rectangle_114015" data-name="Rectangle 114015" width="28.715" height="39.927" fill="none"/>
    </clipPath>
    <clipPath id="clip-path-2">
      <rect id="Rectangle_114013" data-name="Rectangle 114013" width="19.554" height="11.278" fill="#192024"/>
    </clipPath>
    <clipPath id="clip-path-3">
      <rect id="Rectangle_114014" data-name="Rectangle 114014" width="2.351" height="4.61" fill="#192024"/>
    </clipPath>
  </defs>
  <g id="Car_Accessories" data-name="Car Accessories" transform="translate(1922 2932)">
    <rect id="Rectangle_114176" data-name="Rectangle 114176" width="48" height="48" transform="translate(-1922 -2932)" fill="#fff" opacity="0"/>
    <g id="Group_333661" data-name="Group 333661" transform="translate(-1912 -2928)" clip-path="url(#clip-path)">
      <g id="Group_333654" data-name="Group 333654" transform="translate(0 0)" style="isolation: isolate">
        <g id="Group_333653" data-name="Group 333653">
          <path id="Path_340891" data-name="Path 340891" d="M11.739.3a3.917,3.917,0,0,1,.4.177l.471.241L14,1.435l1.839.95,2.123,1.1L20.2,4.642l2.188,1.133,1.968,1.019,1.579.818,1.024.53.307.159A2.418,2.418,0,0,1,28.6,11.234c-.594,2.116-4.2,9.541-10.135,10.247,0,0-1.671,6.274-1.968,7.388,0,0,1.151,0,.594,2.042-.527,1.933-.489,2.535-1.522,2.531-.058,0-.12,0-.186-.006-1.225-.074.066,0,.066,0s-.548,5.342-5.412,5.416c0,0-1.485,1.332-2.427-.2,0,0-4.627-.687-3.81-7.184S5.51,20.924,5.51,20.924a4.989,4.989,0,0,0-1-4.269c-1.634-1.745-4.752-4.9-4.492-8.91.047-.72.112-1.44.227-2.153A3.946,3.946,0,0,1,.59,4.213a3,3,0,0,1,1.228-.9c.549-.328,1.106-.642,1.666-.951.762-.422,1.532-.83,2.316-1.208C6.308.907,6.82.669,7.346.466A6.774,6.774,0,0,1,8.936.044a7.632,7.632,0,0,1,1.6,0A4.439,4.439,0,0,1,11.739.3" transform="translate(0 0.001)" fill="#b2b8bd"/>
          <rect id="Rectangle_114012" data-name="Rectangle 114012" width="28.715" height="39.392" transform="translate(0)" fill="none"/>
        </g>
      </g>
      <g id="Group_333657" data-name="Group 333657" transform="translate(4.713 1.173)" style="isolation: isolate">
        <g id="Group_333656" data-name="Group 333656">
          <g id="Group_333655" data-name="Group 333655" clip-path="url(#clip-path-2)">
            <path id="Path_340892" data-name="Path 340892" d="M15.9,8.62s9.652,5.671,10.684,5.862,3.361,1.4,5.678-.734S35.35,10.828,33.315,9.7,22.909,4.3,22.909,4.3a4.084,4.084,0,0,0-4.467.189c-.844.594-2.456,1.375-3.005,1.911-.945.924-.422,1.538.458,2.22" transform="translate(-14.935 -3.718)" fill="#192024"/>
          </g>
        </g>
      </g>
      <g id="Group_333660" data-name="Group 333660" transform="translate(14.9 28.838)" style="isolation: isolate">
        <g id="Group_333659" data-name="Group 333659">
          <g id="Group_333658" data-name="Group 333658" clip-path="url(#clip-path-3)">
            <path id="Path_340893" data-name="Path 340893" d="M48.815,91.415s-.908-.2-1.019.427-.575,2.989-.575,2.989-.1,1.084.546,1.155a1.05,1.05,0,0,0,1.126-.664c.1-.3.643-2.475.643-2.475s.262-1.246-.72-1.431" transform="translate(-47.216 -91.383)" fill="#192024"/>
          </g>
        </g>
      </g>
      <path id="Path_340894" data-name="Path 340894" d="M22.072,120.995s.051,1.531,1.248,1.657a2.171,2.171,0,0,0,1.893-1.128A4.5,4.5,0,0,0,22,120.995" transform="translate(-15.056 -82.733)" fill="#192024"/>
    </g>
  </g>
</svg>
