<svg xmlns="http://www.w3.org/2000/svg" xmlns:xlink="http://www.w3.org/1999/xlink" width="48" height="48" viewBox="0 0 48 48">
  <defs>
    <clipPath id="clip-path">
      <rect id="Rectangle_113501" data-name="Rectangle 113501" width="23.65" height="35.782" fill="none"/>
    </clipPath>
  </defs>
  <g id="Power_Banks" data-name="Power Banks" transform="translate(1922 2999)">
    <rect id="Rectangle_114175" data-name="Rectangle 114175" width="48" height="48" transform="translate(-1922 -2999)" fill="#fff" opacity="0"/>
    <g id="Group_333651" data-name="Group 333651" transform="translate(-1910 -2993)">
      <g id="Group_332275" data-name="Group 332275" clip-path="url(#clip-path)">
        <path id="Path_337663" data-name="Path 337663" d="M.012,15.35q0-6.408,0-12.816A2.448,2.448,0,0,1,1.964.042,2.768,2.768,0,0,1,2.522,0q9.3,0,18.609,0a2.412,2.412,0,0,1,2.507,2.5c.008,2.809,0,5.618,0,8.427q0,8.55,0,17.1a1.639,1.639,0,0,1,0,.21c-.017.132.07.314-.083.381-.128.056-.217-.108-.318-.179a3.374,3.374,0,0,0-1.968-.651q-9.445,0-18.89,0a3.362,3.362,0,0,0-1.995.673c-.091.065-.172.209-.292.159-.146-.062-.081-.228-.081-.347q-.005-6.461,0-12.921M14.969,19.9a3.055,3.055,0,0,0-.9-2.212.519.519,0,0,0-.726-.026.5.5,0,0,0-.047.7c.072.106.165.2.24.3a2.1,2.1,0,1,1-3.768.856,2.4,2.4,0,0,1,.582-1.14.5.5,0,0,0-.036-.724.518.518,0,0,0-.726.042,2.564,2.564,0,0,0-.3.341A3.146,3.146,0,1,0,14.969,19.9m-2.606-1.5c0-.479.007-.959,0-1.438-.007-.4-.223-.661-.531-.664s-.534.256-.538.656q-.012,1.4,0,2.806c0,.418.234.693.548.683s.514-.272.521-.675c.008-.456,0-.912,0-1.368" transform="translate(0 0)" fill="#b2b8bd"/>
        <path id="Path_337664" data-name="Path 337664" d="M11.946,307.059h9.095a2.491,2.491,0,0,1,2.7,2.716c0,.55,0,1.1,0,1.65a2.471,2.471,0,0,1-2.579,2.6c-1.709.013-3.418,0-5.127,0q-6.619,0-13.239,0a2.5,2.5,0,0,1-2.575-1.767,2.6,2.6,0,0,1-.111-.761c0-.574,0-1.147,0-1.721a2.492,2.492,0,0,1,2.7-2.717h9.13m4.326,4c.62,0,1.239,0,1.859,0,.372,0,.583-.193.591-.5s-.2-.514-.572-.516q-1.876-.009-3.753,0c-.381,0-.571.187-.567.514s.209.5.583.507c.62.006,1.239,0,1.859,0m-10.485,0c.374,0,.62-.2.63-.505.01-.325-.254-.526-.681-.52-.389.006-.609.195-.6.517s.24.511.652.508m2.379,0c.409,0,.648-.186.65-.511s-.225-.51-.607-.515c-.425-.005-.684.2-.674.526.01.308.248.5.631.5m2.449,0c.388,0,.6-.188.6-.519,0-.346-.21-.511-.642-.507-.405,0-.6.172-.6.51s.226.518.644.516" transform="translate(-0.102 -278.246)" fill="#192024"/>
      </g>
    </g>
  </g>
</svg>
