<svg xmlns="http://www.w3.org/2000/svg" width="48" height="48" viewBox="0 0 48 48">
  <g id="True_Wireless_Earphones" data-name="True Wireless Earphones" transform="translate(2377 3064)">
    <rect id="Rectangle_114161" data-name="Rectangle 114161" width="48" height="48" transform="translate(-2377 -3064)" fill="#fff" opacity="0"/>
    <g id="Group_333043" data-name="Group 333043" transform="translate(-2370.696 -3054.572)">
      <path id="Path_340702" data-name="Path 340702" d="M105.062,57.132a15.957,15.957,0,0,1-4.364,1.2V69.157s.384,1.918,1.6,1.987,3.015,0,3.015,0,1.691-.419,1.778-1.9c.058-.98.123-7.654.16-12.058,0-.411.007-.793.009-1.158a19.241,19.241,0,0,1-2.2,1.1" transform="translate(-93.427 -42.475)" fill="#b2b9bf"/>
      <path id="Path_340703" data-name="Path 340703" d="M121.1,57.132a15.957,15.957,0,0,0,4.364,1.2V69.157s-.384,1.918-1.6,1.987-3.015,0-3.015,0-1.691-.419-1.778-1.9c-.058-.98-.123-7.654-.16-12.058,0-.411-.007-.793-.009-1.158a19.243,19.243,0,0,0,2.2,1.1" transform="translate(-97.244 -42.475)" fill="#b2b9bf"/>
      <path id="Path_340704" data-name="Path 340704" d="M131.9,46.575a9.632,9.632,0,0,0-.548-1.358,11.72,11.72,0,0,0-2.035-2.921,11.039,11.039,0,0,0-4.09-2.7,10.311,10.311,0,0,0-2.979-.712,6.386,6.386,0,0,0-5.764,3.631,8.714,8.714,0,0,0-.549,1.425,5.779,5.779,0,0,0,.028,3.616,6.551,6.551,0,0,0,1.863,2.8,11.921,11.921,0,0,0,3.193,1.885c2.329,1,5.19,1.527,7.621.532l.074-.031a3.9,3.9,0,0,0,1.547-.977c1.165-1.351,2.2-3.373,1.641-5.189m-1.022,3.932c-.5.919-1.2,1.506-1.554,1.312s-.243-1.1.257-2.017,1.2-1.507,1.554-1.312.243,1.1-.257,2.017" transform="translate(-96.565 -38.876)" fill="#1a2024"/>
      <path id="Path_340705" data-name="Path 340705" d="M91.653,46.575a9.442,9.442,0,0,1,.548-1.358A11.718,11.718,0,0,1,94.235,42.3a11.035,11.035,0,0,1,4.091-2.7,10.311,10.311,0,0,1,2.979-.712,6.184,6.184,0,0,1,3.579,1.1,6.25,6.25,0,0,1,2.185,2.536,8.715,8.715,0,0,1,.549,1.425,5.784,5.784,0,0,1-.028,3.616,6.551,6.551,0,0,1-1.863,2.8,11.921,11.921,0,0,1-3.193,1.885c-2.33,1-5.19,1.527-7.622.532l-.074-.031a3.905,3.905,0,0,1-1.547-.977c-1.165-1.351-2.2-3.373-1.64-5.189m1.022,3.932c.5.919,1.2,1.506,1.554,1.312s.243-1.1-.258-2.017-1.2-1.507-1.554-1.312-.243,1.1.258,2.017" transform="translate(-91.497 -38.876)" fill="#1a2024"/>
    </g>
  </g>
</svg>
